<svg width="24" height="25" viewBox="0 0 24 25" fill="none" xmlns="http://www.w3.org/2000/svg">
<path d="M7.34313 5.26437C7.34313 7.93584 4.41266 11.0361 4.41504 15.571C4.41742 20.106 7.49813 22.4958 11.854 22.4958C17.2989 22.4958 18.6034 17.2038 18.7141 16.5045C19.0828 16.6066 19.8571 17.0308 20.1921 17.0308C20.6383 17.0308 21.196 16.5045 20.8056 15.7186C20.487 15.0773 18.9553 11.3093 18.0867 9.93633C17.2291 8.58088 16.3577 7.93201 16.2461 5.26437C16.2163 4.55097 15.2492 0.873603 11.6658 1.00335C8.60523 1.00335 7.34313 2.5929 7.34313 5.26437Z" fill="#1C1B19" stroke="black" stroke-width="0.0133281"/>
<path d="M17.7102 14.6626C17.7102 19.8249 13.8014 21.25 11.847 21.3173C8.37516 21.3173 5.8584 18.2401 5.8584 15.4197C5.8584 11.8941 8.27058 9.44272 8.82134 8.51987C8.26588 7.52491 8.15207 6.40018 8.15207 5.41964C8.15207 4.86449 8.53551 3.09808 9.86709 3.09808C11.3311 3.09808 11.2661 4.52563 11.4218 5.14567H12.2026C12.2026 5.14567 12.3699 3.09808 13.7085 3.09808C14.9703 3.09808 15.4514 4.30212 15.4514 5.58547C15.4514 6.61215 15.0238 8.08487 14.81 8.6929C15.9533 10.1998 17.7102 12.0166 17.7102 14.6626Z" fill="#FDFFFC" stroke="white" stroke-width="0.0133281"/>
<path d="M11.8424 8.33965C11.6991 8.35076 10.7227 7.02742 10.748 6.39295C10.7734 5.75849 11.4401 5.90269 11.5007 5.90269C11.5613 5.90269 12.0519 5.88046 12.1125 5.90269C12.1731 5.92492 12.8579 5.68639 12.8813 6.39295C12.9048 7.09952 11.9857 8.32853 11.8424 8.33965Z" fill="#1B2F37"/>
<path d="M11.8537 7.20047C11.6724 7.20768 10.4733 6.119 10.4663 6.02527C10.4594 5.93155 11.3448 5.10242 11.4215 5.10242C11.4981 5.10242 12.1187 5.088 12.1953 5.10242C12.272 5.11684 13.1574 5.95318 13.1644 6.02527C13.1713 6.09737 12.035 7.19326 11.8537 7.20047Z" fill="#F3B135"/>
<ellipse cx="9.8807" cy="5.23937" rx="0.543788" ry="0.562366" fill="#1B293F"/>
<ellipse cx="13.7293" cy="5.23937" rx="0.543788" ry="0.562366" fill="#1B293F"/>
<path d="M5.39111 23.5649V13.088C5.39111 12.718 5.5186 12.4012 5.77358 12.1375C6.02812 11.8742 6.33427 11.7426 6.69202 11.7426H17.0993C17.457 11.7426 17.7634 11.8742 18.0184 12.1375C18.2729 12.4012 18.4002 12.718 18.4002 13.088V21.1601C18.4002 21.53 18.2729 21.8469 18.0184 22.1106C17.7634 22.3738 17.457 22.5054 17.0993 22.5054H7.99293L6.49688 24.0526C6.29091 24.2656 6.05501 24.3131 5.78919 24.1952C5.52381 24.0777 5.39111 23.8676 5.39111 23.5649Z" fill="#E73F45"/>
<path d="M11.9096 20.8125C11.4227 20.8125 10.9626 20.7157 10.5292 20.5221C10.0957 20.3288 9.71728 20.0648 9.39381 19.73C9.07011 19.3955 8.8148 19.0041 8.62789 18.5559C8.44074 18.1077 8.34717 17.6318 8.34717 17.1283C8.34717 16.6187 8.44074 16.1413 8.62789 15.6963C8.8148 15.251 9.07011 14.8611 9.39381 14.5266C9.71728 14.1918 10.0957 13.9276 10.5292 13.7341C10.9626 13.5408 11.4227 13.4442 11.9096 13.4442C12.4024 13.4442 12.864 13.5408 13.2943 13.7341C13.7249 13.9276 14.1019 14.1918 14.4254 14.5266C14.7491 14.8611 15.0044 15.251 15.1913 15.6963C15.3785 16.1413 15.472 16.6187 15.472 17.1283C15.472 17.6318 15.3785 18.1077 15.1913 18.5559C15.0044 19.0041 14.7491 19.3955 14.4254 19.73C14.1019 20.0648 13.7249 20.3288 13.2943 20.5221C12.864 20.7157 12.4024 20.8125 11.9096 20.8125ZM13.3168 15.6546H14.3677C14.1955 15.3476 13.9802 15.0805 13.7218 14.8533C13.4637 14.6262 13.1683 14.4573 12.8358 14.3468C12.9427 14.5494 13.0363 14.7596 13.1166 14.9775C13.1966 15.1956 13.2633 15.4213 13.3168 15.6546ZM11.2327 15.6546H12.5865C12.5152 15.3845 12.4232 15.1297 12.3104 14.8902C12.1976 14.6507 12.064 14.4205 11.9096 14.1994C11.7552 14.4205 11.6216 14.6507 11.5088 14.8902C11.396 15.1297 11.304 15.3845 11.2327 15.6546ZM9.14872 17.8651H10.3599C10.3421 17.7423 10.3287 17.621 10.3197 17.5011C10.3109 17.3815 10.3065 17.2572 10.3065 17.1283C10.3065 16.9994 10.3109 16.8751 10.3197 16.7555C10.3287 16.6356 10.3421 16.5143 10.3599 16.3915H9.14872C9.11903 16.5143 9.09671 16.6356 9.08174 16.7555C9.06702 16.8751 9.05966 16.9994 9.05966 17.1283C9.05966 17.2572 9.06702 17.3815 9.08174 17.5011C9.09671 17.621 9.11903 17.7423 9.14872 17.8651ZM10.9834 19.9098C10.8765 19.7072 10.783 19.4968 10.703 19.2787C10.6227 19.0609 10.5559 18.8353 10.5024 18.602H9.45152C9.62371 18.909 9.83888 19.1761 10.097 19.4033C10.3554 19.6305 10.6509 19.7993 10.9834 19.9098ZM9.45152 15.6546H10.5024C10.5559 15.4213 10.6227 15.1956 10.703 14.9775C10.783 14.7596 10.8765 14.5494 10.9834 14.3468C10.6509 14.4573 10.3554 14.6262 10.097 14.8533C9.83888 15.0805 9.62371 15.3476 9.45152 15.6546ZM11.9096 20.0572C12.064 19.8362 12.1976 19.6059 12.3104 19.3664C12.4232 19.127 12.5152 18.8721 12.5865 18.602H11.2327C11.304 18.8721 11.396 19.127 11.5088 19.3664C11.6216 19.6059 11.7552 19.8362 11.9096 20.0572ZM11.0724 17.8651H12.7468C12.7646 17.7423 12.778 17.621 12.787 17.5011C12.7958 17.3815 12.8002 17.2572 12.8002 17.1283C12.8002 16.9994 12.7958 16.8751 12.787 16.7555C12.778 16.6356 12.7646 16.5143 12.7468 16.3915H11.0724C11.0546 16.5143 11.0413 16.6356 11.0325 16.7555C11.0235 16.8751 11.019 16.9994 11.019 17.1283C11.019 17.2572 11.0235 17.3815 11.0325 17.5011C11.0413 17.621 11.0546 17.7423 11.0724 17.8651ZM12.8358 19.9098C13.1683 19.7993 13.4637 19.6305 13.7218 19.4033C13.9802 19.1761 14.1955 18.909 14.3677 18.602H13.3168C13.2633 18.8353 13.1966 19.0609 13.1166 19.2787C13.0363 19.4968 12.9427 19.7072 12.8358 19.9098ZM13.4593 17.8651H14.6705C14.7002 17.7423 14.7225 17.621 14.7375 17.5011C14.7522 17.3815 14.7596 17.2572 14.7596 17.1283C14.7596 16.9994 14.7522 16.8751 14.7375 16.7555C14.7225 16.6356 14.7002 16.5143 14.6705 16.3915H13.4593C13.4771 16.5143 13.4904 16.6356 13.4992 16.7555C13.5082 16.8751 13.5127 16.9994 13.5127 17.1283C13.5127 17.2572 13.5082 17.3815 13.4992 17.5011C13.4904 17.621 13.4771 17.7423 13.4593 17.8651Z" fill="#FDFFFC"/>
<path d="M6.688 16.3855C6.688 15.6213 5.89342 13.9845 5.39824 13.2997C4.90307 12.615 6.85527 9.63716 6.85527 9.63716C6.85527 9.63716 7.9129 6.23433 6.31149 8.52703C4.71007 10.8197 3.0524 11.6919 3.06255 13.2997C3.07269 14.9075 3.71788 15.3259 4.38019 15.9243C5.04249 16.5227 5.88606 17.1211 6.19282 17.1211C6.49957 17.1211 6.688 17.1498 6.688 16.3855Z" fill="#1C1B19" stroke="black" stroke-width="0.0133281"/>
</svg>
