<svg width="76" height="28" viewBox="0 0 76 28" fill="none" xmlns="http://www.w3.org/2000/svg">
<path d="M4.67719 6.65204C4.67719 9.56638 1.48031 12.9484 1.48291 17.8957C1.48551 22.8429 4.84628 25.45 9.59815 25.45C15.538 25.45 16.9611 19.6769 17.0819 18.914C17.484 19.0254 18.3288 19.4881 18.6942 19.4881C19.181 19.4881 19.7894 18.914 19.3635 18.0567C19.0159 17.357 17.345 13.2465 16.3974 11.7487C15.4619 10.27 14.5113 9.56219 14.3896 6.65204C14.357 5.87379 13.302 1.86211 9.39281 2.00366C6.05402 2.00366 4.67719 3.7377 4.67719 6.65204Z" fill="#1C1B19" stroke="black" stroke-width="0.0145397"/>
<path d="M15.9863 16.9047C15.9863 22.5362 11.7222 24.0909 9.59018 24.1643C5.80269 24.1643 3.05713 20.8074 3.05713 17.7305C3.05713 13.8844 5.6886 11.2102 6.28943 10.2035C5.68347 9.11808 5.55931 7.8911 5.55931 6.82143C5.55931 6.21581 5.97761 4.28882 7.43024 4.28882C9.02738 4.28882 8.9564 5.84614 9.12625 6.52255H9.97806C9.97806 6.52255 10.1606 4.28882 11.6208 4.28882C12.9974 4.28882 13.5222 5.60232 13.5222 7.00233C13.5222 8.12234 13.0557 9.72895 12.8225 10.3923C14.0698 12.0361 15.9863 14.0181 15.9863 16.9047Z" fill="#FDFFFC" stroke="white" stroke-width="0.0145397"/>
<path d="M9.58502 10.0069C9.42867 10.019 8.3635 8.57534 8.39115 7.8832C8.4188 7.19106 9.14607 7.34837 9.21219 7.34837C9.2783 7.34837 9.81356 7.32411 9.87968 7.34837C9.94579 7.37262 10.6928 7.1124 10.7184 7.8832C10.7439 8.654 9.74137 9.99474 9.58502 10.0069Z" fill="#1B2F37"/>
<path d="M9.598 8.7641C9.40025 8.77197 8.09212 7.58432 8.08452 7.48207C8.07691 7.37982 9.04284 6.47531 9.12646 6.47531C9.21008 6.47531 9.88704 6.45958 9.97066 6.47531C10.0543 6.49104 11.0202 7.40341 11.0278 7.48207C11.0354 7.56072 9.79574 8.75624 9.598 8.7641Z" fill="#F3B135"/>
<ellipse cx="7.44527" cy="6.62478" rx="0.593223" ry="0.61349" fill="#1B293F"/>
<ellipse cx="11.6435" cy="6.62478" rx="0.593223" ry="0.61349" fill="#1B293F"/>
<path d="M2.54736 26.6163V15.1869C2.54736 14.7833 2.68644 14.4377 2.9646 14.15C3.24228 13.8628 3.57626 13.7192 3.96653 13.7192H15.3199C15.7102 13.7192 16.0444 13.8628 16.3225 14.15C16.6002 14.4377 16.7391 14.7833 16.7391 15.1869V23.9928C16.7391 24.3964 16.6002 24.7421 16.3225 25.0297C16.0444 25.3169 15.7102 25.4605 15.3199 25.4605H5.38571L3.75366 27.1483C3.52896 27.3807 3.27161 27.4325 2.98163 27.3039C2.69212 27.1757 2.54736 26.9465 2.54736 26.6163Z" fill="#E73F45"/>
<path d="M9.65876 23.6136C9.12763 23.6136 8.62565 23.508 8.15282 23.2969C7.67999 23.086 7.26713 22.798 6.91426 22.4328C6.56112 22.0678 6.2826 21.6409 6.0787 21.1519C5.87454 20.6629 5.77246 20.1438 5.77246 19.5945C5.77246 19.0385 5.87454 18.5178 6.0787 18.0323C6.2826 17.5465 6.56112 17.1212 6.91426 16.7562C7.26713 16.391 7.67999 16.1029 8.15282 15.8917C8.62565 15.6809 9.12763 15.5754 9.65876 15.5754C10.1964 15.5754 10.6999 15.6809 11.1694 15.8917C11.6391 16.1029 12.0504 16.391 12.4033 16.7562C12.7564 17.1212 13.0349 17.5465 13.2388 18.0323C13.443 18.5178 13.5451 19.0385 13.5451 19.5945C13.5451 20.1438 13.443 20.6629 13.2388 21.1519C13.0349 21.6409 12.7564 22.0678 12.4033 22.4328C12.0504 22.798 11.6391 23.086 11.1694 23.2969C10.6999 23.508 10.1964 23.6136 9.65876 23.6136ZM11.1938 17.9869H12.3403C12.1525 17.652 11.9176 17.3606 11.6357 17.1127C11.3541 16.8649 11.0319 16.6807 10.6692 16.5601C10.7858 16.7812 10.8879 17.0105 10.9754 17.2482C11.0627 17.4861 11.1356 17.7323 11.1938 17.9869ZM8.92036 17.9869H10.3972C10.3194 17.6922 10.219 17.4142 10.096 17.1529C9.9729 16.8917 9.82717 16.6405 9.65876 16.3993C9.49035 16.6405 9.34462 16.8917 9.22155 17.1529C9.09848 17.4142 8.99809 17.6922 8.92036 17.9869ZM6.64688 20.3983H7.96822C7.94879 20.2644 7.93415 20.132 7.9243 20.0012C7.91472 19.8708 7.90993 19.7352 7.90993 19.5945C7.90993 19.4538 7.91472 19.3183 7.9243 19.1878C7.93415 19.057 7.94879 18.9247 7.96822 18.7907H6.64688C6.61449 18.9247 6.59014 19.057 6.57382 19.1878C6.55775 19.3183 6.54972 19.4538 6.54972 19.5945C6.54972 19.7352 6.55775 19.8708 6.57382 20.0012C6.59014 20.132 6.61449 20.2644 6.64688 20.3983ZM8.64832 22.6289C8.53173 22.4079 8.42978 22.1784 8.34247 21.9404C8.2549 21.7028 8.18197 21.4567 8.12367 21.2021H6.97721C7.16505 21.5371 7.39978 21.8284 7.68141 22.0763C7.9633 22.3241 8.2856 22.5083 8.64832 22.6289ZM6.97721 17.9869H8.12367C8.18197 17.7323 8.2549 17.4861 8.34247 17.2482C8.42978 17.0105 8.53173 16.7812 8.64832 16.5601C8.2856 16.6807 7.9633 16.8649 7.68141 17.1127C7.39978 17.3606 7.16505 17.652 6.97721 17.9869ZM9.65876 22.7897C9.82717 22.5485 9.9729 22.2973 10.096 22.0361C10.219 21.7749 10.3194 21.4969 10.3972 21.2021H8.92036C8.99809 21.4969 9.09848 21.7749 9.22155 22.0361C9.34462 22.2973 9.49035 22.5485 9.65876 22.7897ZM8.74548 20.3983H10.572C10.5915 20.2644 10.6061 20.132 10.616 20.0012C10.6255 19.8708 10.6303 19.7352 10.6303 19.5945C10.6303 19.4538 10.6255 19.3183 10.616 19.1878C10.6061 19.057 10.5915 18.9247 10.572 18.7907H8.74548C8.72605 18.9247 8.71154 19.057 8.70195 19.1878C8.69211 19.3183 8.68718 19.4538 8.68718 19.5945C8.68718 19.7352 8.69211 19.8708 8.70195 20.0012C8.71154 20.132 8.72605 20.2644 8.74548 20.3983ZM10.6692 22.6289C11.0319 22.5083 11.3541 22.3241 11.6357 22.0763C11.9176 21.8284 12.1525 21.5371 12.3403 21.2021H11.1938C11.1356 21.4567 11.0627 21.7028 10.9754 21.9404C10.8879 22.1784 10.7858 22.4079 10.6692 22.6289ZM11.3493 20.3983H12.6706C12.703 20.2644 12.7274 20.132 12.7437 20.0012C12.7598 19.8708 12.7678 19.7352 12.7678 19.5945C12.7678 19.4538 12.7598 19.3183 12.7437 19.1878C12.7274 19.057 12.703 18.9247 12.6706 18.7907H11.3493C11.3687 18.9247 11.3832 19.057 11.3928 19.1878C11.4027 19.3183 11.4076 19.4538 11.4076 19.5945C11.4076 19.7352 11.4027 19.8708 11.3928 20.0012C11.3832 20.132 11.3687 20.2644 11.3493 20.3983Z" fill="#FDFFFC"/>
<path d="M3.96241 18.7842C3.96241 17.9505 3.0956 16.1649 2.55541 15.4179C2.01521 14.6709 4.14489 11.4224 4.14489 11.4224C4.14489 11.4224 5.29867 7.71019 3.55167 10.2113C1.80467 12.7125 -0.00368855 13.6639 0.00737473 15.4179C0.018438 17.1719 0.722288 17.6283 1.4448 18.2811C2.16732 18.9339 3.08757 19.5867 3.42221 19.5867C3.75685 19.5867 3.96241 19.618 3.96241 18.7842Z" fill="#1C1B19" stroke="black" stroke-width="0.0145397"/>
<path d="M28.7493 20V7.4H31.1793V18.11H36.7053V20H28.7493ZM38.7864 20V10.928H41.2164V20H38.7864ZM40.0104 9.686C39.5784 9.686 39.2184 9.56 38.9304 9.308C38.6544 9.044 38.5164 8.714 38.5164 8.318C38.5164 7.922 38.6544 7.598 38.9304 7.346C39.2184 7.082 39.5784 6.95 40.0104 6.95C40.4544 6.95 40.8144 7.082 41.0904 7.346C41.3784 7.598 41.5224 7.922 41.5224 8.318C41.5224 8.714 41.3784 9.044 41.0904 9.308C40.8144 9.56 40.4544 9.686 40.0104 9.686ZM43.6719 20V10.928H45.8139L45.9939 12.404C46.2699 11.9 46.6599 11.492 47.1639 11.18C47.6799 10.868 48.2919 10.712 48.9999 10.712C49.7559 10.712 50.3919 10.868 50.9079 11.18C51.4239 11.492 51.8139 11.948 52.0779 12.548C52.3539 13.148 52.4919 13.886 52.4919 14.762V20H50.0799V14.996C50.0799 14.276 49.9239 13.724 49.6119 13.34C49.3119 12.956 48.8439 12.764 48.2079 12.764C47.7999 12.764 47.4339 12.86 47.1099 13.052C46.7979 13.244 46.5519 13.52 46.3719 13.88C46.1919 14.228 46.1019 14.654 46.1019 15.158V20H43.6719ZM58.6873 24.176C57.8233 24.176 57.0673 24.068 56.4193 23.852C55.7713 23.648 55.2673 23.33 54.9073 22.898C54.5593 22.478 54.3853 21.956 54.3853 21.332C54.3853 20.912 54.4933 20.516 54.7093 20.144C54.9253 19.772 55.2373 19.436 55.6453 19.136C56.0653 18.824 56.5873 18.56 57.2113 18.344L58.1293 19.532C57.5773 19.712 57.1753 19.934 56.9233 20.198C56.6833 20.474 56.5633 20.768 56.5633 21.08C56.5633 21.356 56.6533 21.59 56.8333 21.782C57.0253 21.974 57.2773 22.112 57.5893 22.196C57.9133 22.292 58.2733 22.34 58.6693 22.34C59.0533 22.34 59.3833 22.292 59.6593 22.196C59.9473 22.1 60.1693 21.956 60.3253 21.764C60.4933 21.584 60.5773 21.368 60.5773 21.116C60.5773 20.792 60.4633 20.528 60.2353 20.324C60.0073 20.12 59.5513 19.994 58.8673 19.946C58.2553 19.898 57.7093 19.832 57.2293 19.748C56.7613 19.652 56.3473 19.544 55.9873 19.424C55.6273 19.292 55.3213 19.148 55.0693 18.992C54.8293 18.836 54.6313 18.68 54.4753 18.524V18.11L56.4013 16.04L58.1473 16.598L55.8793 18.83L56.5633 17.642C56.6953 17.714 56.8213 17.786 56.9413 17.858C57.0733 17.918 57.2353 17.978 57.4273 18.038C57.6193 18.086 57.8713 18.134 58.1833 18.182C58.4953 18.23 58.8913 18.272 59.3713 18.308C60.1633 18.38 60.8113 18.53 61.3153 18.758C61.8313 18.986 62.2093 19.292 62.4493 19.676C62.6893 20.048 62.8093 20.51 62.8093 21.062C62.8093 21.602 62.6593 22.106 62.3593 22.574C62.0713 23.054 61.6213 23.438 61.0093 23.726C60.3973 24.026 59.6233 24.176 58.6873 24.176ZM58.6873 17.318C57.9313 17.318 57.2773 17.174 56.7253 16.886C56.1853 16.586 55.7653 16.19 55.4653 15.698C55.1773 15.194 55.0333 14.636 55.0333 14.024C55.0333 13.412 55.1773 12.86 55.4653 12.368C55.7653 11.864 56.1853 11.462 56.7253 11.162C57.2773 10.862 57.9313 10.712 58.6873 10.712C59.4553 10.712 60.1093 10.862 60.6493 11.162C61.2013 11.462 61.6213 11.864 61.9093 12.368C62.1973 12.86 62.3413 13.412 62.3413 14.024C62.3413 14.636 62.1973 15.194 61.9093 15.698C61.6213 16.19 61.2013 16.586 60.6493 16.886C60.1093 17.174 59.4553 17.318 58.6873 17.318ZM58.6873 15.464C59.1553 15.464 59.5333 15.344 59.8213 15.104C60.1093 14.864 60.2533 14.51 60.2533 14.042C60.2533 13.574 60.1093 13.22 59.8213 12.98C59.5333 12.728 59.1553 12.602 58.6873 12.602C58.2313 12.602 57.8533 12.728 57.5533 12.98C57.2653 13.22 57.1213 13.574 57.1213 14.042C57.1213 14.51 57.2653 14.864 57.5533 15.104C57.8533 15.344 58.2313 15.464 58.6873 15.464ZM60.1993 12.656L59.8033 10.928H63.5293V12.368L60.1993 12.656ZM68.8879 20.216C68.1559 20.216 67.5259 20.066 66.9979 19.766C66.4819 19.454 66.0859 19.004 65.8099 18.416C65.5339 17.816 65.3959 17.078 65.3959 16.202V10.928H67.8259V15.95C67.8259 16.682 67.9759 17.234 68.2759 17.606C68.5879 17.978 69.0619 18.164 69.6979 18.164C70.1059 18.164 70.4659 18.074 70.7779 17.894C71.0899 17.702 71.3359 17.432 71.5159 17.084C71.7079 16.724 71.8039 16.286 71.8039 15.77V10.928H74.2159V20H72.0919L71.8939 18.524C71.6299 19.04 71.2399 19.454 70.7239 19.766C70.2079 20.066 69.5959 20.216 68.8879 20.216Z" fill="#0F172B"/>
</svg>
